<svg xmlns="http://www.w3.org/2000/svg" width="40px" height="40px" viewBox="0 0 960 960" fill="#75fb4c">
  <g transform="translate(0 238.08) scale(0.8) translate(100.8 50)">
    <!-- Base fill with dot "holes" (even-odd) -->
    <path fill-rule="evenodd" d="
M 81 1.976 C 64.980 5.435, 52.196 11.409, 38.237 21.961 C 17.908 37.326, 6.070 59.598, 1.416 91.235 C -0.811 106.373, -0.077 139.871, 2.883 158.166 C 10.151 203.100, 24.911 250.188, 48.595 304 C 62.634 335.899, 90.851 390.502, 109.313 421.500 C 120.083 439.583, 129.560 448.643, 145.537 456.130 C 161.954 463.824, 153.297 463.361, 288.500 463.776 L 409.500 464.148 424.500 484.069 L 439.500 503.990 500 503.990 L 560.500 503.990 575.500 484.064 L 590.500 464.137 712 463.782 C 847.935 463.385, 837.810 463.934, 854.634 456.050 C 870.432 448.647, 879.953 439.523, 890.687 421.500 C 909.064 390.646, 936.267 338.122, 950.507 306 C 976.148 248.160, 993.558 191.026, 998.045 150 C 998.676 144.225, 999.599 138.719, 1000.096 137.764 C 1001.252 135.543, 1001.290 96.703, 1000.136 97.416 C 999.660 97.710, 998.973 95.038, 998.608 91.479 C 997.057 76.339, 990.559 57.402, 982.442 44.364 C 969.453 23.499, 943.620 6.609, 916.964 1.553 C 909.645 0.164, 865.455 0.007, 499.140 0.070 C 105.659 0.138, 89.165 0.213, 81 1.976
M 92.539 30.108 C 74.261 32.784, 53.837 44.018, 44.846 56.342 C 33.669 71.661, 27.981 97.106, 29.387 125.500 C 32.798 194.411, 65.131 283.542, 125.515 390.500 C 139.761 415.734, 145.846 423.355, 155.761 428.379 C 167.327 434.240, 161.259 434, 297.990 434 L 423.559 434 439.030 454.493 L 454.500 474.986 500 474.986 L 545.500 474.986 560.970 454.493 L 576.441 434 702.539 434 C 815.591 434, 829.199 433.833, 834.068 432.388 C 850.973 427.373, 857.318 420.847, 874.308 391 C 887.464 367.890, 914.875 314.061, 923.449 294.500 C 951.864 229.673, 966.522 178.650, 970.220 131.701 C 972.282 105.520, 968.563 80.512, 960.243 64.613 C 952.891 50.564, 938.554 39.228, 920 32.794 L 910.500 29.500 504.500 29.368 C 277.733 29.294, 95.868 29.621, 92.539 30.108
M 168.401 214.905 C 155.731 220.660, 154.880 239.611, 166.928 247.731 L 170.309 250.009 500.581 249.754 L 830.853 249.500 833.677 247.408 C 840.057 242.680, 842.931 234.566, 841.054 226.577 C 839.852 221.458, 837.224 218.021, 832.406 215.266 L 828.500 213.033 500.500 213.038 C 182.775 213.044, 172.372 213.102, 168.401 214.905

M 164 123.5 m -17 0 a 17 17 0 1 0 24 0 a 17 17 0 1 0 -24 0 Z
M 276 123.5 m -17 0 a 17 17 0 1 0 24 0 a 17 17 0 1 0 -24 0 Z
M 388 123.5 m -17 0 a 17 17 0 1 0 24 0 a 17 17 0 1 0 -24 0 Z
M 500 123.5 m -17 0 a 17 17 0 1 0 24 0 a 17 17 0 1 0 -24 0 Z
M 612 123.5 m -17 0 a 17 17 0 1 0 24 0 a 17 17 0 1 0 -24 0 Z
M 724 123.5 m -17 0 a 17 17 0 1 0 24 0 a 17 17 0 1 0 -24 0 Z
M 836 123.5 m -17 0 a 17 17 0 1 0 24 0 a 17 17 0 1 0 -24 0 Z

M 164 340 m -17 0 a 17 17 0 1 0 24 0 a 17 17 0 1 0 -24 0 Z
M 276 340 m -17 0 a 17 17 0 1 0 24 0 a 17 17 0 1 0 -24 0 Z
M 388 340 m -17 0 a 17 17 0 1 0 24 0 a 17 17 0 1 0 -24 0 Z
M 500 340 m -17 0 a 17 17 0 1 0 24 0 a 17 17 0 1 0 -24 0 Z
M 612 340 m -17 0 a 17 17 0 1 0 24 0 a 17 17 0 1 0 -24 0 Z
M 724 340 m -17 0 a 17 17 0 1 0 24 0 a 17 17 0 1 0 -24 0 Z
M 836 340 m -17 0 a 17 17 0 1 0 24 0 a 17 17 0 1 0 -24 0 Z
"/>

    <!-- Extra-thick outer shell pass (bigger stroke-width) -->
    <path
      fill="none"
      stroke="#75fb4c"
      stroke-width="36"
      stroke-linejoin="round"
      stroke-linecap="round"
      d="
M 81 1.976 C 64.980 5.435, 52.196 11.409, 38.237 21.961 C 17.908 37.326, 6.070 59.598, 1.416 91.235 C -0.811 106.373, -0.077 139.871, 2.883 158.166 C 10.151 203.100, 24.911 250.188, 48.595 304 C 62.634 335.899, 90.851 390.502, 109.313 421.500 C 120.083 439.583, 129.560 448.643, 145.537 456.130 C 161.954 463.824, 153.297 463.361, 288.500 463.776 L 409.500 464.148 424.500 484.069 L 439.500 503.990 500 503.990 L 560.500 503.990 575.500 484.064 L 590.500 464.137 712 463.782 C 847.935 463.385, 837.810 463.934, 854.634 456.050 C 870.432 448.647, 879.953 439.523, 890.687 421.500 C 909.064 390.646, 936.267 338.122, 950.507 306 C 976.148 248.160, 993.558 191.026, 998.045 150 C 998.676 144.225, 999.599 138.719, 1000.096 137.764 C 1001.252 135.543, 1001.290 96.703, 1000.136 97.416 C 999.660 97.710, 998.973 95.038, 998.608 91.479 C 997.057 76.339, 990.559 57.402, 982.442 44.364 C 969.453 23.499, 943.620 6.609, 916.964 1.553 C 909.645 0.164, 865.455 0.007, 499.140 0.070 C 105.659 0.138, 89.165 0.213, 81 1.976
M 92.539 30.108 C 74.261 32.784, 53.837 44.018, 44.846 56.342 C 33.669 71.661, 27.981 97.106, 29.387 125.500 C 32.798 194.411, 65.131 283.542, 125.515 390.500 C 139.761 415.734, 145.846 423.355, 155.761 428.379 C 167.327 434.240, 161.259 434, 297.990 434 L 423.559 434 439.030 454.493 L 454.500 474.986 500 474.986 L 545.500 474.986 560.970 454.493 L 576.441 434 702.539 434 C 815.591 434, 829.199 433.833, 834.068 432.388 C 850.973 427.373, 857.318 420.847, 874.308 391 C 887.464 367.890, 914.875 314.061, 923.449 294.500 C 951.864 229.673, 966.522 178.650, 970.220 131.701 C 972.282 105.520, 968.563 80.512, 960.243 64.613 C 952.891 50.564, 938.554 39.228, 920 32.794 L 910.500 29.500 504.500 29.368 C 277.733 29.294, 95.868 29.621, 92.539 30.108
M 168.401 214.905 C 155.731 220.660, 154.880 239.611, 166.928 247.731 L 170.309 250.009 500.581 249.754 L 830.853 249.500 833.677 247.408 C 840.057 242.680, 842.931 234.566, 841.054 226.577 C 839.852 221.458, 837.224 218.021, 832.406 215.266 L 828.500 213.033 500.500 213.038 C 182.775 213.044, 172.372 213.102, 168.401 214.905
"/>
  </g>
</svg>
