<svg xmlns="http://www.w3.org/2000/svg" height="40px" viewBox="0 -960 960 960" width="40px" fill="#EA3323"><path d="m282-369.33-75.33-76q24-21.67 50.83-38.84 26.83-17.16 55.83-30.5L190-600.33q-21 13.33-40.33 28.16-19.34 14.84-37.34 31.84l-80.33-81Q46.33-634 61-646.17 75.67-658.33 90.67-670l-59.34-41.67L81-782l788.67 551.33-49 70.67-397.34-277.67q-39 8-75 24.67T282-369.33Zm85-302.34-119.67-83.66q55.34-22 113.84-33t118.83-11q126 0 241.33 45.83Q836.67-707.67 928-621.33l-80.33 81q-75-70-170-107.5T480-685.33q-28.67 0-56.83 3.16Q395-679 367-671.67Zm61.17 489.5q-21.5-21.5-21.5-51.83t21.5-51.83q21.5-21.5 51.83-21.5t51.83 21.5q21.5 21.5 21.5 51.83t-21.5 51.83q-21.5 21.5-51.83 21.5t-51.83-21.5Z"/></svg>