<svg xmlns="http://www.w3.org/2000/svg" height="40px" viewBox="0 -960 960 960" width="40px" fill="#75FB4C"><path d="m112.33-540.33-80.33-81q91.33-86.34 206.67-132.17Q354-799.33 480-799.33q126 0 241.33 45.83Q836.67-707.67 928-621.33l-80.33 81q-75-70-170-107.5T480-685.33q-102.67 0-197.67 37.5-95 37.5-170 107.5Zm169.67 171-75.33-76q57-51 127.16-78.17Q404-550.67 480-550.67q76 0 146.17 27.17 70.16 27.17 127.16 78.17l-75.33 76q-42-36-92.5-54.67T480-442.67q-55 0-105.5 18.67T282-369.33Zm146.17 187.16q-21.5-21.5-21.5-51.83t21.5-51.83q21.5-21.5 51.83-21.5t51.83 21.5q21.5 21.5 21.5 51.83t-21.5 51.83q-21.5 21.5-51.83 21.5t-51.83-21.5Z"/></svg>