<svg xmlns="http://www.w3.org/2000/svg" height="40px" viewBox="0 -960 960 960" width="40px" fill="#FF4700"><path d="m275.16-37.05 114.19-577.39-86.31 36.16v134.56h-73.48v-183.1l199.32-83.38q14.56-6.08 30.46-7.38 15.9-1.29 31.12 2.38 16.4 3.82 29.34 12.48 12.94 8.65 21.26 21.79l41.81 65.34q28.85 45.2 74.65 72.25 45.79 27.06 100.76 27.06v72.56q-69.76-1.17-124.4-28.72-54.63-27.55-96.62-80.53l-31.83 134.6 88.85 81.76v299.56h-72.56v-244.51l-95.46-85.16-76.11 329.67h-74.99Zm211.91-738.32q-22.96-23.08-22.96-55.51 0-32.44 22.96-55.4 22.97-22.97 55.32-22.97 32.36 0 55.44 22.97 23.08 22.96 23.08 55.4 0 32.43-23.08 55.51-23.08 23.09-55.44 23.09-32.35 0-55.32-23.09Z"/></svg>