<svg xmlns="http://www.w3.org/2000/svg" height="40px" viewBox="0 -960 960 960" width="40px" fill="#FF4700"><path d="M194.92-73.3q-80.88 0-137.9-56.9Q0-187.09 0-268.05t56.99-137.94q56.98-56.98 137.83-56.98 81.04 0 138.02 56.99 56.99 56.98 56.99 137.83 0 81.04-57.01 137.94-57.01 56.91-137.9 56.91Zm85.95-108.85q35.12-35.01 35.12-85.88t-35.05-85.98q-35.04-35.12-85.95-35.12-50.92 0-86.03 35.04-35.12 35.04-35.12 85.96 0 50.91 35.04 85.95 35.04 35.04 85.96 35.04 50.91 0 86.03-35.01Zm162.29-10.45v-201.83L311.85-510.3q-11.89-10.15-17.63-24.16-5.73-14-5.73-29.46 0-15.31 6.08-28.91 6.07-13.6 16.8-24.5l118.72-118.56q11.43-11.43 25.99-17.24 14.57-5.81 30.54-5.81 16.32 0 31.29 5.57 14.96 5.57 26.61 17.23l78.41 78.41q28.82 28.81 65.62 45.86 36.81 17.06 77.71 17.06v73.84q-56.23 0-106.97-22.12-50.73-22.12-90.38-61.77l-35.98-35.98-102.81 103.48 86.88 92.4v252.36h-73.84Zm125.36-578.2q-22.69-22.58-22.69-54.64t22.64-54.74q22.63-22.69 54.64-22.69 32.01 0 54.69 22.61 22.69 22.61 22.69 54.72t-22.64 54.72q-22.63 22.6-54.64 22.6-32.01 0-54.69-22.58ZM765.18-73.3q-81.04 0-137.94-56.9-56.91-56.89-56.91-137.85t56.9-137.94q56.89-56.98 137.85-56.98T903.02-406Q960-349.03 960-268.07q0 80.96-56.99 137.86Q846.03-73.3 765.18-73.3Zm85.86-108.85q35.12-35.01 35.12-85.88t-35.04-85.98q-35.04-35.12-85.96-35.12-50.91 0-85.95 35.04-35.04 35.04-35.04 85.96 0 50.91 35.01 85.95 35.01 35.04 85.88 35.04t85.98-35.01Z"/></svg>