<svg xmlns="http://www.w3.org/2000/svg" height="40px" viewBox="0 -960 960 960" width="40px" fill="#FF4700"><path d="M522.82-251.84q17.44-17.44 17.44-42.83 0-25.38-17.44-42.82T480-354.93q-25.38 0-42.82 17.44t-17.44 42.82q0 25.39 17.44 42.83 17.44 17.43 42.82 17.43t42.82-17.43Zm0-185.34q17.44-17.44 17.44-42.82t-17.44-42.82q-17.44-17.44-42.82-17.44t-42.82 17.44q-17.44 17.44-17.44 42.82t17.44 42.82q17.44 17.44 42.82 17.44t42.82-17.44Zm0-185.33q17.44-17.44 17.44-42.82 0-25.39-17.44-42.83-17.44-17.43-42.82-17.43t-42.82 17.43q-17.44 17.44-17.44 42.83 0 25.38 17.44 42.82T480-605.07q25.38 0 42.82-17.44ZM267.58-354.28v-63.57q-51.48-12.56-84.07-52.24-32.6-39.69-32.6-88.86h116.67v-61.56q-51.48-12.56-84.07-51.92-32.6-39.35-32.6-88.52h116.67v-19.19q0-29.69 20.08-49.4 20.09-19.71 49.54-19.71h285.6q29.69 0 49.74 19.71 20.04 19.71 20.04 49.4v19.19h116.67q0 49.17-32.68 88.52-32.67 39.36-83.99 51.92v61.56h116.67q0 49.17-32.68 88.86-32.67 39.68-83.99 52.24v63.57h116.67q0 50.34-32.68 89.11-32.67 38.76-83.99 51.32v33.32q0 29.45-20.04 49.53-20.05 20.09-49.74 20.09H337.2q-29.45 0-49.54-20.09-20.08-20.08-20.08-49.53v-33.08q-51.48-12.56-84.07-51.05-32.6-38.48-32.6-89.62h116.67Zm75.75 167.61h273.34v-586.66H343.33v586.66Zm0 0v-586.66 586.66Z"/></svg>