<svg xmlns="http://www.w3.org/2000/svg" height="40px" viewBox="0 -960 960 960" width="40px" fill="#FF4700"><path d="M145.65-188.9q-35.46-34.37-36.1-84.3H33.86v-457.18q0-31 22.38-53.38 22.38-22.38 53.38-22.38h572.66v161.56h108.09l135.77 181.02v190.36h-77.27q-.8 49.93-36.18 84.3-35.39 34.37-85.28 34.37t-85.35-34.37q-35.47-34.37-36.1-84.3H352.22q-.79 49.58-36.06 84.12-35.26 34.55-85.15 34.55-49.89 0-85.36-34.37Zm122.11-50.65q15.17-15.17 15.17-36.83 0-21.67-15.17-36.84-15.17-15.16-36.83-15.16-21.67 0-36.84 15.16-15.16 15.17-15.16 36.84 0 21.66 15.16 36.83 15.17 15.17 36.84 15.17 21.66 0 36.83-15.17Zm-158.14-109.4h26.42q16.94-22.64 41.06-36.18t53.17-13.54q29.05 0 53.52 13.76 24.48 13.76 41.17 35.96h281.57v-381.43H109.62v381.43Zm654.55 109.4q15.16-15.17 15.16-36.83 0-21.67-15.16-36.84-15.17-15.16-36.84-15.16-21.66 0-36.83 15.16-15.17 15.17-15.17 36.84 0 21.66 15.17 36.83 15.17 15.17 36.83 15.17 21.67 0 36.84-15.17ZM682.28-430h174.21l-104-138.67h-70.21V-430ZM358.41-532.67Z"/></svg>