<svg xmlns="http://www.w3.org/2000/svg" height="40px" viewBox="0 -960 960 960" width="40px" fill="#FF4700"><path d="M153.3-342.95V-720q0-47.74 22.91-79.99 22.91-32.26 65.44-51.31 42.53-19.06 103.11-27.31 60.57-8.25 135.24-8.25 79.33 0 140.2 7.92 60.87 7.91 102.35 26.97 41.49 19.06 62.9 51.07 21.41 32.02 21.41 80.9v377.05q0 62.67-42.74 106.52-42.73 43.84-104.68 44.96l63.51 63.67v20h-79.23l-83.19-83.11H399.47l-83.19 83.11h-79.23v-20l63.51-63.67q-61.95-1.12-104.6-44.96-42.66-43.85-42.66-106.52ZM480-810.94q-115.33 0-167 14.5t-73 38.83h480.94q-17-23.67-71.3-38.5-54.31-14.83-169.64-14.83ZM229.06-547.61h220.27v-143.33H229.06v143.33Zm425.36 66.67H229.06h501.88-76.52ZM516-547.61h214.94v-143.33H516v143.33ZM378.2-331.85q16.41-16.3 16.41-40.26 0-23.95-16.41-40.36-16.42-16.41-40.37-16.41-23.95 0-40.25 16.41t-16.3 40.36q0 23.96 16.3 40.26 16.3 16.3 40.25 16.3t40.37-16.3Zm284.27 0q16.41-16.3 16.41-40.26 0-23.95-16.41-40.36t-40.36-16.41q-23.96 0-40.26 16.41-16.3 16.41-16.3 40.36 0 23.96 16.3 40.26 16.3 16.3 40.26 16.3 23.95 0 40.36-16.3Zm-356.89 68.52h348.84q32.49 0 54.51-23.17 22.01-23.17 22.01-56.45v-137.99H229.06v137.99q0 33.28 22.01 56.45 22.02 23.17 54.51 23.17ZM480-757.61h240.94H240h240Z"/></svg>